{
    "asset" : {
        "generator" : "Khronos glTF Blender I/O v1.6.16",
        "version" : "2.0"
    },
    "scene" : 0,
    "scenes" : [
        {
            "extras" : {
                "b_settings" : 1,
                "b_renderer" : 0,
                "b_aa" : 1,
                "b_colorManagement" : 1,
                "b_interactive" : 0,
                "b_player" : 0,
                "s_output" : "exporting...",
                "b_export" : 1,
                "export_path" : "C:\\Users\\Juan\\Desktop\\daslfjhsdf",
                "s_project_name" : "book altar"
            },
            "name" : "Scene",
            "nodes" : [
                0
            ]
        }
    ],
    "nodes" : [
        {
            "mesh" : 0,
            "name" : "Book Altar",
            "rotation" : [
                0.7071068286895752,
                0,
                0,
                0.7071067094802856
            ]
        }
    ],
    "materials" : [
        {
            "doubleSided" : true,
            "name" : "palette",
            "pbrMetallicRoughness" : {
                "baseColorTexture" : {
                    "index" : 0
                },
                "metallicFactor" : 0
            }
        }
    ],
    "meshes" : [
        {
            "name" : "Book Altar",
            "primitives" : [
                {
                    "attributes" : {
                        "POSITION" : 0,
                        "NORMAL" : 1,
                        "TANGENT" : 2,
                        "TEXCOORD_0" : 3
                    },
                    "indices" : 4,
                    "material" : 0
                }
            ]
        }
    ],
    "textures" : [
        {
            "sampler" : 0,
            "source" : 0
        }
    ],
    "images" : [
        {
            "bufferView" : 5,
            "mimeType" : "image/png",
            "name" : "Book Altar"
        }
    ],
    "accessors" : [
        {
            "bufferView" : 0,
            "componentType" : 5126,
            "count" : 536,
            "max" : [
                0.8999999761581421,
                0.7867768406867981,
                2.171900987625122
            ],
            "min" : [
                -0.8999999761581421,
                -0.5132231116294861,
                -0.6280992031097412
            ],
            "type" : "VEC3"
        },
        {
            "bufferView" : 1,
            "componentType" : 5126,
            "count" : 536,
            "type" : "VEC3"
        },
        {
            "bufferView" : 2,
            "componentType" : 5126,
            "count" : 536,
            "type" : "VEC4"
        },
        {
            "bufferView" : 3,
            "componentType" : 5126,
            "count" : 536,
            "type" : "VEC2"
        },
        {
            "bufferView" : 4,
            "componentType" : 5123,
            "count" : 960,
            "type" : "SCALAR"
        }
    ],
    "bufferViews" : [
        {
            "buffer" : 0,
            "byteLength" : 6432,
            "byteOffset" : 0
        },
        {
            "buffer" : 0,
            "byteLength" : 6432,
            "byteOffset" : 6432
        },
        {
            "buffer" : 0,
            "byteLength" : 8576,
            "byteOffset" : 12864
        },
        {
            "buffer" : 0,
            "byteLength" : 4288,
            "byteOffset" : 21440
        },
        {
            "buffer" : 0,
            "byteLength" : 1920,
            "byteOffset" : 25728
        },
        {
            "buffer" : 0,
            "byteLength" : 972,
            "byteOffset" : 27648
        }
    ],
    "samplers" : [
        {
            "magFilter" : 9729,
            "minFilter" : 9987
        }
    ],
    "buffers" : [
        {
            "byteLength" : 28620,
            "uri" : "data:application/octet-stream;base64,"
        }
    ]
}
